<svg xmlns="http://www.w3.org/2000/svg" width="256" height="256">
  <defs>
    <style>.a{clip-path:url(#b);}.b{fill:#9c27b0;}.c{fill:#ce93d8;}.d{fill:#7b1fa2;}</style>
    <clipPath id="b">
      <rect id="svg_1" height="96" width="96"/>
    </clipPath>
  </defs>
  <g>
    <title>background</title>
    <rect fill="none" id="canvas_background" height="258" width="258" y="-1" x="-1"/>
  </g>
  <g>
    <title>Layer 1</title>
    <g stroke="null" id="svg_6">
      <path stroke="null" id="svg_2" d="m165.30294,177.017911l0,0l-14.738681,-14.815702a41.655922,41.873608 0 0 0 6.513397,-5.343368a40.869379,41.082955 0 0 0 12.0449,-29.23091a40.869379,41.082955 0 0 0 -12.0449,-29.236078a41.758738,41.976961 0 0 0 -5.50837,-4.650901l14.687273,-14.764025a62.627826,62.955107 0 0 1 5.361857,4.805931a61.473715,61.794965 0 0 1 13.219573,19.712067a61.275795,61.59601 0 0 1 4.847777,24.138174a61.270654,61.590843 0 0 1 -4.847777,24.13559a61.486567,61.807885 0 0 1 -13.219573,19.709483a62.509587,62.83625 0 0 1 -6.310335,5.544907l-0.005141,-0.005168zm-75.107123,-0.379824l0,0a62.568706,62.895679 0 0 1 -5.814248,-5.167667a61.468575,61.789798 0 0 1 -13.222144,-19.709483a61.30921,61.6296 0 0 1 -4.845206,-24.13559a61.314351,61.634768 0 0 1 4.845206,-24.138174a61.473715,61.794965 0 0 1 13.219573,-19.709483a62.699797,63.027454 0 0 1 4.883762,-4.410604l14.651287,14.727852a41.807576,42.026054 0 0 0 -4.99686,4.289164a40.869379,41.082955 0 0 0 -12.04233,29.236078a40.869379,41.082955 0 0 0 12.04233,29.23091a41.720182,41.938204 0 0 0 5.989035,4.989383l-14.710406,14.78728l0,0.010335z" class="b"/>
      <path stroke="null" id="svg_3" d="m194.546412,206.392219l0,0l-14.597308,-14.673591a83.743672,84.1813 0 0 0 6.220371,-5.640509a82.021503,82.450132 0 0 0 17.627812,-26.282756a81.738759,82.16591 0 0 0 6.464559,-32.184232a81.738759,82.16591 0 0 0 -6.464559,-32.184232a81.995799,82.424293 0 0 0 -17.627812,-26.280172c-1.691324,-1.700163 -3.472612,-3.343481 -5.289886,-4.880862l14.584456,-14.660672c1.799281,1.576139 3.565146,3.232376 5.243618,4.922203a102.458763,102.994193 0 0 1 22.025768,32.848277a102.150315,102.684133 0 0 1 8.081341,40.23029a102.168307,102.70222 0 0 1 -8.081341,40.23029a102.458763,102.994193 0 0 1 -22.033479,32.850861c-1.971498,1.9818 -4.040671,3.901589 -6.15097,5.707689l-0.00257,-0.002584zm-133.570899,-0.405662l0,0c-1.940653,-1.682076 -3.855602,-3.464921 -5.675446,-5.299443a102.50246,103.038118 0 0 1 -22.03605,-32.850861a102.206863,102.740977 0 0 1 -8.078771,-40.23029a102.188871,102.72289 0 0 1 8.07363,-40.23029a102.50246,103.038118 0 0 1 22.03605,-32.850861c1.542241,-1.5503 3.148741,-3.067011 4.775805,-4.50879l14.576745,14.652921c-1.642486,1.408189 -3.259269,2.911981 -4.811791,4.472616a81.964954,82.393287 0 0 0 -17.627812,26.280172a81.738759,82.16591 0 0 0 -6.464559,32.184232a81.738759,82.16591 0 0 0 6.464559,32.184232a81.995799,82.424293 0 0 0 17.627812,26.282756c1.827555,1.837106 3.755356,3.601864 5.729424,5.247766l-14.589597,14.66584z" class="c"/>
      <rect stroke="null" id="svg_4" x="107.436781" y="107.32933" rx="8" height="41.341338" width="41.126419" class="d"/>
    </g>
    <style transform="matrix(1.42404827209306,0,0,1.42404827209306,0,0) " type="text/css">
  .st0{fill:#9c27b0;}
	.st1{fill:#822393;}
	.st2{fill:#c334dd;}
	.st3{fill:#690589;}
	.st4{fill:#FCC24C;}
	.st5{fill:#7BAC51;}
	.st6{fill:#5D8E33;}
	.st7{fill:#99CA6F;}
	.st8{fill:#E18152;}
	.st9{fill:#F4EFED;}
	.st10{fill:#FF9F70;}
	.st11{fill:#FFBD8E;}
	.st12{fill:#D6D1CF;}
	.st13{fill:#FFFFFF;}
	.st14{fill:#FCE06A;}
	.st15{fill:#DEA42E;}</style>
    <g stroke="null" id="svg_87">
      <g stroke="null" transform="matrix(0.47251965914526267,0,0,0.4966145351212816,107.65827080331339,110.51270044675505) " id="svg_85">
        <title stroke="null" transform="translate(3.847843885421753,30.50960922241211) translate(-1.2826145887374878,2.842170943040401e-14) translate(42.66437911987305,47.67764663696289) translate(-3.440213680267334,-113.48839569091797) translate(0.8600534200668335,15.959304809570312) translate(0,-21.707944869995117) translate(-93.54869842529297,-37.5949592590332) translate(2.7461211681365967,23.538183212280273) translate(25.884571075439453,0) translate(0,28.662355422973633) ">background</title>
        <rect stroke="null" x="-23.268558" y="-27.444201" width="130" height="130" id="svg_83" fill="none"/>
      </g>
      <g stroke="null" transform="matrix(0.47251965914526267,0,0,0.4966145351212816,107.65827080331339,110.51270044675505) " id="svg_86">
        <title stroke="null" transform="translate(3.847843885421753,30.50960922241211) translate(-1.2826145887374878,2.842170943040401e-14) translate(42.66437911987305,47.67764663696289) translate(-3.440213680267334,-113.48839569091797) translate(0.8600534200668335,15.959304809570312) translate(0,-21.707944869995117) translate(-93.54869842529297,-37.5949592590332) translate(2.7461211681365967,23.538183212280273) translate(25.884571075439453,0) translate(0,28.662355422973633) ">Layer 1</title>
        <g stroke="null" id="svg_67">
          <g stroke="null" id="svg_68">
            <g stroke="null" id="svg_81">
              <ellipse stroke="null" transform="matrix(0.588295217846659,-0.5538316433446788,0.588295217846659,0.5538316433446788,-46.24372357371456,151.58627085917544) " class="st0" cx="180.323211" cy="-25.114562" rx="68.781" ry="68.781" id="svg_82"/>
            </g>
            <g stroke="null" id="svg_79">
              <path stroke="null" class="st1" d="m45.066399,-16.063605c-1.356132,0 -2.69729,0.060311 -4.030122,0.148032c29.72176,1.94871 53.195329,25.248646 53.195329,53.72425c0,28.476393 -23.473569,51.77555 -53.195329,53.725039c1.332832,0.086942 2.67399,0.147253 4.030122,0.147253c31.60454,0 57.224625,-24.11921 57.224625,-53.872292c0,-29.753073 -25.620085,-53.872282 -57.224625,-53.872282z" id="svg_80"/>
            </g>
            <g stroke="null" id="svg_77">
              <path stroke="null" class="st2" d="m45.066399,-16.063605c1.356132,0 2.69729,0.060311 4.030132,0.148032c-29.72177,1.94871 -53.195339,25.248646 -53.195339,53.72425c0,28.476393 23.472743,51.77555 53.195339,53.725039c-1.332841,0.086942 -2.674,0.147253 -4.030132,0.147253c-31.60454,0 -57.224625,-24.11921 -57.224625,-53.872292c0,-29.753073 25.620085,-53.872282 57.224625,-53.872282z" id="svg_78"/>
            </g>
            <g stroke="null" id="svg_75">
              <polygon stroke="null" class="st9" points="22.90154719352722,37.80870056152344 22.90154719352722,4.9531707763671875 53.12581706047058,21.38092041015625 83.35094904899597,37.80870056152344 53.12581706047058,54.236412048339844 22.90154719352722,70.66421508789062 " id="svg_76"/>
            </g>
            <g stroke="null" id="svg_73">
              <path stroke="null" class="st3" d="m45.066399,93.247453c-32.471462,0 -58.888588,-24.869555 -58.888588,-55.438775s26.417126,-55.438775 58.888588,-55.438775c32.471471,0 58.888597,24.869555 58.888597,55.438775s-26.417126,55.438775 -58.888597,55.438775zm0,-107.744574c-30.636109,0 -55.560663,23.464414 -55.560663,52.305799s24.924554,52.305799 55.560663,52.305799s55.560663,-23.464414 55.560663,-52.305799s-24.924544,-52.305799 -55.560663,-52.305799z" id="svg_74"/>
            </g>
            <g stroke="null" id="svg_71">
              <path stroke="null" class="st3" d="m5.737731,9.169375c-0.37023,0 -0.742968,-0.115919 -1.05246,-0.354029c-0.71135,-0.547484 -0.817008,-1.53437 -0.235452,-2.204044c2.547529,-2.934039 5.453648,-5.594711 8.639312,-7.908413c0.727149,-0.528691 1.772127,-0.401808 2.333716,0.283533c0.561589,0.685341 0.4268,1.668313 -0.301184,2.196995c-2.985153,2.168017 -5.709067,4.661874 -8.09602,7.410277c-0.326972,0.379082 -0.805367,0.575682 -1.287912,0.575682z" id="svg_72"/>
            </g>
            <g stroke="null" id="svg_69">
              <path stroke="null" class="st3" d="m22.901545,72.230674c-0.287037,0 -0.574074,-0.069707 -0.831991,-0.209911c-0.514998,-0.279618 -0.831981,-0.797336 -0.831981,-1.356572l0,-65.711017c0,-0.559236 0.316984,-1.076964 0.831981,-1.356582c0.514998,-0.279618 1.148974,-0.279618 1.663972,0l60.448554,32.855513c0.514998,0.279618 0.831991,0.797336 0.831991,1.356572s-0.316993,1.076964 -0.831991,1.356582l-60.448554,32.855504c-0.257091,0.140203 -0.544118,0.209911 -0.831991,0.209911l0.00001,0zm1.663962,-64.565125l0,60.285478l55.456666,-30.142349l-55.456666,-30.143128z" id="svg_70"/>
            </g>
          </g>
        </g>
      </g>
    </g>
  </g>
</svg>